<svg width="1000" height="1200" viewBox="0 0 1000 1200" fill="none" xmlns="http://www.w3.org/2000/svg">
<rect width="1000" height="1200" fill="url(#paint0_radial_3_41)"/>
<rect x="18" y="328" width="425.245" height="263" rx="34" fill="#F0F0F0" stroke="#3CA2F9" stroke-width="2"/>
<rect x="20" y="180" width="238" height="118" rx="34" fill="#F0F0F0" stroke="#0085FF" stroke-width="2"/>
<rect x="383" y="180" width="238" height="118" rx="34" fill="#F0F0F0" stroke="#3CA2F9" stroke-width="2"/>
<path d="M780 180H950C968.778 180 984 195.222 984 214V264C984 282.778 968.778 298 950 298H780C761.222 298 746 282.778 746 264V214C746 195.222 761.222 180 780 180Z" fill="#F0F0F0" stroke="#3CA2F9" stroke-width="2"/>
<rect x="450" y="328" width="536.571" height="578" rx="34" fill="#F0F0F0" stroke="#3CA2F9" stroke-width="2"/>
<rect x="18" y="643" width="425.245" height="263" rx="34" fill="#F0F0F0" stroke="#3CA2F9" stroke-width="2"/>
<rect x="618" y="1052" width="171.333" height="78" rx="34" fill="#F0F0F0" stroke="#3CA2F9" stroke-width="2"/>
<rect x="418" y="1052" width="171.333" height="78" rx="34" fill="#F0F0F0" stroke="#3CA2F9" stroke-width="2"/>
<rect x="18" y="960" width="171.333" height="78" rx="34" fill="#F0F0F0" stroke="#3CA2F9" stroke-width="2"/>
<rect x="218" y="960" width="171.333" height="78" rx="34" fill="#F0F0F0" stroke="#3CA2F9" stroke-width="2"/>
<rect x="418" y="960" width="171.333" height="78" rx="34" fill="#F0F0F0" stroke="#3CA2F9" stroke-width="2"/>
<rect x="618" y="960" width="171.333" height="78" rx="34" fill="#F0F0F0" stroke="#3CA2F9" stroke-width="2"/>
<rect x="818" y="960" width="171.333" height="78" rx="34" fill="#F0F0F0" stroke="#3CA2F9" stroke-width="2"/>
<rect x="818" y="1052" width="171.333" height="78" rx="34" fill="#F0F0F0" stroke="#3CA2F9" stroke-width="2"/>
<rect x="18" y="1052" width="171.333" height="78" rx="34" fill="#F0F0F0" stroke="#3CA2F9" stroke-width="2"/>
<rect x="218" y="1052" width="171.333" height="78" rx="34" fill="#F0F0F0" stroke="#3CA2F9" stroke-width="2"/>
<rect x="17" y="13" width="971" height="137.848" rx="35" fill="#F0F0F0"/>
<path d="M233.791 84.135V57.9532H244.12C246.098 57.9532 247.785 58.3069 249.183 59.0142C250.589 59.7131 251.659 60.706 252.392 61.9929C253.133 63.2713 253.504 64.7756 253.504 66.5057C253.504 68.2444 253.129 69.7401 252.379 70.9929C251.629 72.2373 250.542 73.1918 249.119 73.8566C247.704 74.5213 245.991 74.8537 243.98 74.8537H237.063V70.4049H243.085C244.142 70.4049 245.019 70.26 245.718 69.9702C246.417 69.6804 246.937 69.2458 247.278 68.6662C247.627 68.0867 247.802 67.3665 247.802 66.5057C247.802 65.6364 247.627 64.9034 247.278 64.3069C246.937 63.7103 246.413 63.2586 245.706 62.9517C245.007 62.6364 244.125 62.4787 243.059 62.4787H239.326V84.135H233.791ZM247.93 72.2202L254.437 84.135H248.326L241.96 72.2202H247.93ZM269.906 84.5185C267.886 84.5185 266.147 84.1094 264.69 83.2912C263.241 82.4645 262.125 81.2969 261.341 79.7884C260.556 78.2713 260.164 76.4773 260.164 74.4063C260.164 72.3864 260.556 70.6137 261.341 69.0881C262.125 67.5625 263.228 66.3736 264.652 65.5213C266.083 64.6691 267.762 64.2429 269.689 64.2429C270.984 64.2429 272.19 64.4517 273.306 64.8694C274.431 65.2784 275.412 65.8963 276.247 66.723C277.091 67.5498 277.747 68.5895 278.216 69.8424C278.684 71.0867 278.919 72.5441 278.919 74.2145V75.7103H262.338V72.3353H273.792C273.792 71.5512 273.622 70.8566 273.281 70.2515C272.94 69.6463 272.467 69.1733 271.862 68.8324C271.265 68.483 270.571 68.3083 269.778 68.3083C268.951 68.3083 268.218 68.5 267.579 68.8836C266.949 69.2586 266.454 69.7657 266.096 70.4049C265.738 71.0355 265.555 71.7387 265.547 72.5142V75.723C265.547 76.6946 265.726 77.5341 266.083 78.2415C266.45 78.9489 266.966 79.4944 267.63 79.8779C268.295 80.2614 269.083 80.4532 269.995 80.4532C270.601 80.4532 271.154 80.3679 271.657 80.1975C272.16 80.027 272.591 79.7713 272.949 79.4304C273.306 79.0895 273.579 78.6719 273.767 78.1776L278.804 78.51C278.548 79.7202 278.024 80.777 277.231 81.6804C276.447 82.5753 275.433 83.2742 274.189 83.777C272.953 84.2713 271.525 84.5185 269.906 84.5185ZM292.032 84.5057C290.779 84.5057 289.663 84.2884 288.683 83.8537C287.703 83.4105 286.927 82.7586 286.356 81.8978C285.793 81.0284 285.512 79.9461 285.512 78.6506C285.512 77.5597 285.713 76.6435 286.113 75.902C286.514 75.1605 287.059 74.564 287.749 74.1123C288.44 73.6605 289.224 73.3196 290.102 73.0895C290.988 72.8594 291.917 72.6975 292.889 72.6037C294.031 72.4844 294.951 72.3736 295.65 72.2713C296.349 72.1605 296.856 71.9986 297.171 71.7855C297.487 71.5725 297.644 71.2571 297.644 70.8395V70.7628C297.644 69.9532 297.389 69.3267 296.877 68.8836C296.374 68.4404 295.659 68.2188 294.73 68.2188C293.749 68.2188 292.97 68.4361 292.39 68.8708C291.811 69.2969 291.427 69.8338 291.239 70.4816L286.203 70.0725C286.458 68.8793 286.961 67.848 287.711 66.9787C288.461 66.1009 289.428 65.4276 290.613 64.9588C291.806 64.4816 293.187 64.2429 294.755 64.2429C295.846 64.2429 296.89 64.3708 297.887 64.6265C298.893 64.8821 299.784 65.2784 300.559 65.8154C301.343 66.3523 301.961 67.0426 302.413 67.8864C302.864 68.7216 303.09 69.723 303.09 70.8907V84.135H297.926V81.412H297.772C297.457 82.0256 297.035 82.5668 296.507 83.0355C295.978 83.4958 295.343 83.858 294.602 84.1222C293.86 84.3779 293.004 84.5057 292.032 84.5057ZM293.592 80.7472C294.393 80.7472 295.1 80.5895 295.714 80.2742C296.328 79.9503 296.809 79.5157 297.159 78.9702C297.508 78.4248 297.683 77.8069 297.683 77.1165V75.0327C297.512 75.1435 297.278 75.2458 296.98 75.3395C296.69 75.4248 296.362 75.5057 295.995 75.5824C295.629 75.6506 295.262 75.7145 294.896 75.7742C294.529 75.8253 294.197 75.8722 293.899 75.9148C293.259 76.0086 292.701 76.1577 292.224 76.3623C291.747 76.5668 291.376 76.8438 291.112 77.1932C290.847 77.5341 290.715 77.9603 290.715 78.4716C290.715 79.2131 290.984 79.7799 291.521 80.1719C292.066 80.5554 292.757 80.7472 293.592 80.7472ZM316.722 57.9532V84.135H311.275V57.9532H316.722ZM337.438 84.135V57.9532H355.08V62.5171H342.974V68.7557H354.173V73.3196H342.974V79.5711H355.132V84.135H337.438ZM379.677 70.098L374.691 70.4049C374.606 69.9787 374.423 69.5952 374.142 69.2543C373.86 68.9049 373.49 68.6279 373.029 68.4233C372.578 68.2103 372.037 68.1037 371.406 68.1037C370.562 68.1037 369.85 68.2827 369.271 68.6407C368.691 68.9901 368.402 69.4588 368.402 70.0469C368.402 70.5157 368.589 70.912 368.964 71.2358C369.339 71.5597 369.983 71.8196 370.894 72.0157L374.448 72.7316C376.358 73.1236 377.781 73.7543 378.718 74.6236C379.656 75.4929 380.125 76.635 380.125 78.0498C380.125 79.3367 379.745 80.4659 378.987 81.4375C378.237 82.4091 377.206 83.1676 375.893 83.7131C374.589 84.25 373.085 84.5185 371.38 84.5185C368.781 84.5185 366.71 83.9773 365.167 82.8949C363.633 81.804 362.734 80.3211 362.47 78.4461L367.826 78.1648C367.988 78.9574 368.38 79.5625 369.002 79.9801C369.625 80.3892 370.421 80.5938 371.393 80.5938C372.348 80.5938 373.115 80.4105 373.694 80.0441C374.282 79.6691 374.581 79.1875 374.589 78.5995C374.581 78.1051 374.372 77.7003 373.963 77.385C373.554 77.0611 372.923 76.814 372.071 76.6435L368.67 75.9659C366.752 75.5824 365.325 74.9176 364.387 73.9716C363.458 73.0256 362.994 71.8196 362.994 70.3537C362.994 69.0924 363.335 68.0057 364.017 67.0938C364.707 66.1819 365.674 65.4787 366.919 64.9844C368.171 64.4901 369.637 64.2429 371.316 64.2429C373.796 64.2429 375.748 64.7671 377.171 65.8154C378.603 66.8637 379.439 68.2912 379.677 70.098ZM397.959 64.4986V68.5895H386.133V64.4986H397.959ZM388.818 59.7941H394.264V78.1009C394.264 78.6037 394.341 78.9958 394.494 79.277C394.647 79.5498 394.861 79.7415 395.133 79.8523C395.415 79.9631 395.738 80.0185 396.105 80.0185C396.361 80.0185 396.616 79.9972 396.872 79.9546C397.128 79.9034 397.324 79.8651 397.46 79.8395L398.316 83.8921C398.044 83.9773 397.66 84.0753 397.166 84.1861C396.672 84.3054 396.071 84.3779 395.363 84.4034C394.051 84.4546 392.9 84.2799 391.912 83.8793C390.932 83.4787 390.169 82.8566 389.623 82.0128C389.078 81.1691 388.809 80.1037 388.818 78.8168V59.7941ZM411.066 84.5057C409.813 84.5057 408.696 84.2884 407.716 83.8537C406.736 83.4105 405.96 82.7586 405.389 81.8978C404.827 81.0284 404.546 79.9461 404.546 78.6506C404.546 77.5597 404.746 76.6435 405.147 75.902C405.547 75.1605 406.093 74.564 406.783 74.1123C407.473 73.6605 408.257 73.3196 409.135 73.0895C410.022 72.8594 410.95 72.6975 411.922 72.6037C413.064 72.4844 413.985 72.3736 414.683 72.2713C415.382 72.1605 415.889 71.9986 416.205 71.7855C416.52 71.5725 416.678 71.2571 416.678 70.8395V70.7628C416.678 69.9532 416.422 69.3267 415.911 68.8836C415.408 68.4404 414.692 68.2188 413.763 68.2188C412.783 68.2188 412.003 68.4361 411.423 68.8708C410.844 69.2969 410.46 69.8338 410.273 70.4816L405.236 70.0725C405.492 68.8793 405.995 67.848 406.745 66.9787C407.495 66.1009 408.462 65.4276 409.647 64.9588C410.84 64.4816 412.22 64.2429 413.789 64.2429C414.879 64.2429 415.923 64.3708 416.921 64.6265C417.926 64.8821 418.817 65.2784 419.593 65.8154C420.377 66.3523 420.995 67.0426 421.446 67.8864C421.898 68.7216 422.124 69.723 422.124 70.8907V84.135H416.959V81.412H416.806C416.49 82.0256 416.068 82.5668 415.54 83.0355C415.012 83.4958 414.377 83.858 413.635 84.1222C412.894 84.3779 412.037 84.5057 411.066 84.5057ZM412.625 80.7472C413.426 80.7472 414.134 80.5895 414.747 80.2742C415.361 79.9503 415.843 79.5157 416.192 78.9702C416.541 78.4248 416.716 77.8069 416.716 77.1165V75.0327C416.546 75.1435 416.311 75.2458 416.013 75.3395C415.723 75.4248 415.395 75.5057 415.029 75.5824C414.662 75.6506 414.296 75.7145 413.929 75.7742C413.563 75.8253 413.23 75.8722 412.932 75.9148C412.293 76.0086 411.735 76.1577 411.257 76.3623C410.78 76.5668 410.409 76.8438 410.145 77.1932C409.881 77.5341 409.749 77.9603 409.749 78.4716C409.749 79.2131 410.017 79.7799 410.554 80.1719C411.1 80.5554 411.79 80.7472 412.625 80.7472ZM440.754 64.4986V68.5895H428.928V64.4986H440.754ZM431.613 59.7941H437.059V78.1009C437.059 78.6037 437.136 78.9958 437.289 79.277C437.442 79.5498 437.656 79.7415 437.928 79.8523C438.209 79.9631 438.533 80.0185 438.9 80.0185C439.156 80.0185 439.411 79.9972 439.667 79.9546C439.923 79.9034 440.119 79.8651 440.255 79.8395L441.111 83.8921C440.839 83.9773 440.455 84.0753 439.961 84.1861C439.467 84.3054 438.866 84.3779 438.158 84.4034C436.846 84.4546 435.695 84.2799 434.707 83.8793C433.727 83.4787 432.964 82.8566 432.418 82.0128C431.873 81.1691 431.604 80.1037 431.613 78.8168V59.7941ZM456.999 84.5185C454.979 84.5185 453.241 84.1094 451.783 83.2912C450.334 82.4645 449.218 81.2969 448.434 79.7884C447.65 78.2713 447.258 76.4773 447.258 74.4063C447.258 72.3864 447.65 70.6137 448.434 69.0881C449.218 67.5625 450.321 66.3736 451.745 65.5213C453.177 64.6691 454.856 64.2429 456.782 64.2429C458.077 64.2429 459.283 64.4517 460.4 64.8694C461.525 65.2784 462.505 65.8963 463.34 66.723C464.184 67.5498 464.84 68.5895 465.309 69.8424C465.777 71.0867 466.012 72.5441 466.012 74.2145V75.7103H449.431V72.3353H460.885C460.885 71.5512 460.715 70.8566 460.374 70.2515C460.033 69.6463 459.56 69.1733 458.955 68.8324C458.358 68.483 457.664 68.3083 456.871 68.3083C456.045 68.3083 455.312 68.5 454.672 68.8836C454.042 69.2586 453.547 69.7657 453.189 70.4049C452.831 71.0355 452.648 71.7387 452.64 72.5142V75.723C452.64 76.6946 452.819 77.5341 453.177 78.2415C453.543 78.9489 454.059 79.4944 454.723 79.8779C455.388 80.2614 456.177 80.4532 457.089 80.4532C457.694 80.4532 458.248 80.3679 458.75 80.1975C459.253 80.027 459.684 79.7713 460.042 79.4304C460.4 79.0895 460.672 78.6719 460.86 78.1776L465.897 78.51C465.641 79.7202 465.117 80.777 464.324 81.6804C463.54 82.5753 462.526 83.2742 461.282 83.777C460.046 84.2713 458.618 84.5185 456.999 84.5185ZM495.201 84.135H485.92V57.9532H495.278C497.912 57.9532 500.179 58.4773 502.079 59.5256C503.98 60.5654 505.441 62.0611 506.464 64.0128C507.495 65.9645 508.011 68.2998 508.011 71.0185C508.011 73.7458 507.495 76.0895 506.464 78.0498C505.441 80.01 503.971 81.5142 502.054 82.5625C500.145 83.6108 497.86 84.135 495.201 84.135ZM491.456 79.3921H494.971C496.608 79.3921 497.984 79.1023 499.1 78.5228C500.225 77.9347 501.069 77.027 501.632 75.7998C502.203 74.564 502.488 72.9702 502.488 71.0185C502.488 69.0838 502.203 67.5029 501.632 66.2756C501.069 65.0483 500.23 64.1449 499.113 63.5654C497.997 62.9858 496.62 62.6961 494.984 62.6961H491.456V79.3921ZM521.569 84.5057C520.316 84.5057 519.199 84.2884 518.219 83.8537C517.239 83.4105 516.464 82.7586 515.893 81.8978C515.33 81.0284 515.049 79.9461 515.049 78.6506C515.049 77.5597 515.249 76.6435 515.65 75.902C516.05 75.1605 516.596 74.564 517.286 74.1123C517.976 73.6605 518.76 73.3196 519.638 73.0895C520.525 72.8594 521.454 72.6975 522.425 72.6037C523.567 72.4844 524.488 72.3736 525.187 72.2713C525.885 72.1605 526.393 71.9986 526.708 71.7855C527.023 71.5725 527.181 71.2571 527.181 70.8395V70.7628C527.181 69.9532 526.925 69.3267 526.414 68.8836C525.911 68.4404 525.195 68.2188 524.266 68.2188C523.286 68.2188 522.506 68.4361 521.927 68.8708C521.347 69.2969 520.964 69.8338 520.776 70.4816L515.739 70.0725C515.995 68.8793 516.498 67.848 517.248 66.9787C517.998 66.1009 518.965 65.4276 520.15 64.9588C521.343 64.4816 522.724 64.2429 524.292 64.2429C525.383 64.2429 526.427 64.3708 527.424 64.6265C528.429 64.8821 529.32 65.2784 530.096 65.8154C530.88 66.3523 531.498 67.0426 531.949 67.8864C532.401 68.7216 532.627 69.723 532.627 70.8907V84.135H527.462V81.412H527.309C526.993 82.0256 526.572 82.5668 526.043 83.0355C525.515 83.4958 524.88 83.858 524.138 84.1222C523.397 84.3779 522.54 84.5057 521.569 84.5057ZM523.128 80.7472C523.929 80.7472 524.637 80.5895 525.251 80.2742C525.864 79.9503 526.346 79.5157 526.695 78.9702C527.045 78.4248 527.219 77.8069 527.219 77.1165V75.0327C527.049 75.1435 526.814 75.2458 526.516 75.3395C526.226 75.4248 525.898 75.5057 525.532 75.5824C525.165 75.6506 524.799 75.7145 524.432 75.7742C524.066 75.8253 523.733 75.8722 523.435 75.9148C522.796 76.0086 522.238 76.1577 521.76 76.3623C521.283 76.5668 520.912 76.8438 520.648 77.1932C520.384 77.5341 520.252 77.9603 520.252 78.4716C520.252 79.2131 520.52 79.7799 521.057 80.1719C521.603 80.5554 522.293 80.7472 523.128 80.7472ZM551.257 64.4986V68.5895H539.431V64.4986H551.257ZM542.116 59.7941H547.562V78.1009C547.562 78.6037 547.639 78.9958 547.792 79.277C547.946 79.5498 548.159 79.7415 548.431 79.8523C548.713 79.9631 549.036 80.0185 549.403 80.0185C549.659 80.0185 549.914 79.9972 550.17 79.9546C550.426 79.9034 550.622 79.8651 550.758 79.8395L551.615 83.8921C551.342 83.9773 550.958 84.0753 550.464 84.1861C549.97 84.3054 549.369 84.3779 548.661 84.4034C547.349 84.4546 546.198 84.2799 545.21 83.8793C544.23 83.4787 543.467 82.8566 542.921 82.0128C542.376 81.1691 542.108 80.1037 542.116 78.8168V59.7941ZM564.364 84.5057C563.111 84.5057 561.994 84.2884 561.014 83.8537C560.034 83.4105 559.259 82.7586 558.688 81.8978C558.125 81.0284 557.844 79.9461 557.844 78.6506C557.844 77.5597 558.044 76.6435 558.445 75.902C558.845 75.1605 559.391 74.564 560.081 74.1123C560.771 73.6605 561.555 73.3196 562.433 73.0895C563.32 72.8594 564.249 72.6975 565.22 72.6037C566.362 72.4844 567.283 72.3736 567.982 72.2713C568.68 72.1605 569.188 71.9986 569.503 71.7855C569.818 71.5725 569.976 71.2571 569.976 70.8395V70.7628C569.976 69.9532 569.72 69.3267 569.209 68.8836C568.706 68.4404 567.99 68.2188 567.061 68.2188C566.081 68.2188 565.301 68.4361 564.722 68.8708C564.142 69.2969 563.759 69.8338 563.571 70.4816L558.534 70.0725C558.79 68.8793 559.293 67.848 560.043 66.9787C560.793 66.1009 561.76 65.4276 562.945 64.9588C564.138 64.4816 565.518 64.2429 567.087 64.2429C568.178 64.2429 569.222 64.3708 570.219 64.6265C571.224 64.8821 572.115 65.2784 572.891 65.8154C573.675 66.3523 574.293 67.0426 574.744 67.8864C575.196 68.7216 575.422 69.723 575.422 70.8907V84.135H570.257V81.412H570.104C569.788 82.0256 569.367 82.5668 568.838 83.0355C568.31 83.4958 567.675 83.858 566.933 84.1222C566.192 84.3779 565.335 84.5057 564.364 84.5057ZM565.923 80.7472C566.724 80.7472 567.432 80.5895 568.045 80.2742C568.659 79.9503 569.141 79.5157 569.49 78.9702C569.84 78.4248 570.014 77.8069 570.014 77.1165V75.0327C569.844 75.1435 569.609 75.2458 569.311 75.3395C569.021 75.4248 568.693 75.5057 568.327 75.5824C567.96 75.6506 567.594 75.7145 567.227 75.7742C566.861 75.8253 566.528 75.8722 566.23 75.9148C565.591 76.0086 565.033 76.1577 564.555 76.3623C564.078 76.5668 563.707 76.8438 563.443 77.1932C563.179 77.5341 563.047 77.9603 563.047 78.4716C563.047 79.2131 563.315 79.7799 563.852 80.1719C564.398 80.5554 565.088 80.7472 565.923 80.7472ZM600.514 84.135H594.582L603.621 57.9532H610.754L619.78 84.135H613.848L607.29 63.9361H607.085L600.514 84.135ZM600.143 73.8438H614.155V78.1648H600.143V73.8438ZM632.235 72.7827V84.135H626.789V64.4986H631.979V67.9631H632.209C632.644 66.8211 633.373 65.9176 634.395 65.2529C635.418 64.5796 636.658 64.2429 638.115 64.2429C639.479 64.2429 640.668 64.5412 641.682 65.1378C642.696 65.7344 643.485 66.5867 644.047 67.6946C644.61 68.7941 644.891 70.1066 644.891 71.6321V84.135H639.445V72.6037C639.454 71.402 639.147 70.4645 638.525 69.7912C637.902 69.1094 637.046 68.7685 635.955 68.7685C635.222 68.7685 634.574 68.9262 634.012 69.2415C633.458 69.5569 633.023 70.0171 632.708 70.6222C632.401 71.2188 632.243 71.939 632.235 72.7827ZM658.743 84.5057C657.49 84.5057 656.373 84.2884 655.393 83.8537C654.413 83.4105 653.638 82.7586 653.067 81.8978C652.504 81.0284 652.223 79.9461 652.223 78.6506C652.223 77.5597 652.423 76.6435 652.824 75.902C653.224 75.1605 653.77 74.564 654.46 74.1123C655.15 73.6605 655.934 73.3196 656.812 73.0895C657.699 72.8594 658.628 72.6975 659.599 72.6037C660.741 72.4844 661.662 72.3736 662.361 72.2713C663.059 72.1605 663.567 71.9986 663.882 71.7855C664.197 71.5725 664.355 71.2571 664.355 70.8395V70.7628C664.355 69.9532 664.099 69.3267 663.588 68.8836C663.085 68.4404 662.369 68.2188 661.44 68.2188C660.46 68.2188 659.68 68.4361 659.101 68.8708C658.521 69.2969 658.138 69.8338 657.95 70.4816L652.913 70.0725C653.169 68.8793 653.672 67.848 654.422 66.9787C655.172 66.1009 656.139 65.4276 657.324 64.9588C658.517 64.4816 659.898 64.2429 661.466 64.2429C662.557 64.2429 663.601 64.3708 664.598 64.6265C665.604 64.8821 666.494 65.2784 667.27 65.8154C668.054 66.3523 668.672 67.0426 669.123 67.8864C669.575 68.7216 669.801 69.723 669.801 70.8907V84.135H664.636V81.412H664.483C664.167 82.0256 663.746 82.5668 663.217 83.0355C662.689 83.4958 662.054 83.858 661.312 84.1222C660.571 84.3779 659.714 84.5057 658.743 84.5057ZM660.302 80.7472C661.104 80.7472 661.811 80.5895 662.425 80.2742C663.038 79.9503 663.52 79.5157 663.869 78.9702C664.219 78.4248 664.393 77.8069 664.393 77.1165V75.0327C664.223 75.1435 663.988 75.2458 663.69 75.3395C663.4 75.4248 663.072 75.5057 662.706 75.5824C662.339 75.6506 661.973 75.7145 661.606 75.7742C661.24 75.8253 660.908 75.8722 660.609 75.9148C659.97 76.0086 659.412 76.1577 658.934 76.3623C658.457 76.5668 658.086 76.8438 657.822 77.1932C657.558 77.5341 657.426 77.9603 657.426 78.4716C657.426 79.2131 657.694 79.7799 658.231 80.1719C658.777 80.5554 659.467 80.7472 660.302 80.7472ZM683.432 57.9532V84.135H677.986V57.9532H683.432ZM695.117 91.4986C694.427 91.4986 693.779 91.4432 693.174 91.3324C692.577 91.2302 692.083 91.098 691.691 90.9361L692.918 86.8708C693.557 87.0668 694.133 87.1733 694.644 87.1904C695.164 87.2074 695.611 87.0881 695.986 86.8324C696.37 86.5767 696.681 86.1421 696.919 85.5284L697.239 84.6975L690.195 64.4986H695.922L699.988 78.9191H700.192L704.296 64.4986H710.062L702.429 86.2571C702.063 87.314 701.564 88.2344 700.934 89.0185C700.312 89.8111 699.523 90.4205 698.569 90.8466C697.614 91.2813 696.464 91.4986 695.117 91.4986ZM733.146 70.098L728.161 70.4049C728.075 69.9787 727.892 69.5952 727.611 69.2543C727.33 68.9049 726.959 68.6279 726.499 68.4233C726.047 68.2103 725.506 68.1037 724.875 68.1037C724.031 68.1037 723.32 68.2827 722.74 68.6407C722.161 68.9901 721.871 69.4588 721.871 70.0469C721.871 70.5157 722.058 70.912 722.433 71.2358C722.808 71.5597 723.452 71.8196 724.364 72.0157L727.918 72.7316C729.827 73.1236 731.25 73.7543 732.188 74.6236C733.125 75.4929 733.594 76.635 733.594 78.0498C733.594 79.3367 733.215 80.4659 732.456 81.4375C731.706 82.4091 730.675 83.1676 729.362 83.7131C728.058 84.25 726.554 84.5185 724.85 84.5185C722.25 84.5185 720.179 83.9773 718.637 82.8949C717.102 81.804 716.203 80.3211 715.939 78.4461L721.296 78.1648C721.458 78.9574 721.85 79.5625 722.472 79.9801C723.094 80.3892 723.891 80.5938 724.862 80.5938C725.817 80.5938 726.584 80.4105 727.164 80.0441C727.752 79.6691 728.05 79.1875 728.058 78.5995C728.05 78.1051 727.841 77.7003 727.432 77.385C727.023 77.0611 726.392 76.814 725.54 76.6435L722.139 75.9659C720.222 75.5824 718.794 74.9176 717.857 73.9716C716.928 73.0256 716.463 71.8196 716.463 70.3537C716.463 69.0924 716.804 68.0057 717.486 67.0938C718.176 66.1819 719.144 65.4787 720.388 64.9844C721.641 64.4901 723.107 64.2429 724.786 64.2429C727.266 64.2429 729.218 64.7671 730.641 65.8154C732.073 66.8637 732.908 68.2912 733.146 70.098ZM740.983 84.135V64.4986H746.429V84.135H740.983ZM743.719 61.9674C742.909 61.9674 742.215 61.6989 741.635 61.162C741.064 60.6165 740.779 59.9645 740.779 59.206C740.779 58.456 741.064 57.8125 741.635 57.2756C742.215 56.7301 742.909 56.4574 743.719 56.4574C744.529 56.4574 745.219 56.7301 745.79 57.2756C746.37 57.8125 746.659 58.456 746.659 59.206C746.659 59.9645 746.37 60.6165 745.79 61.162C745.219 61.6989 744.529 61.9674 743.719 61.9674ZM771.09 70.098L766.104 70.4049C766.019 69.9787 765.836 69.5952 765.554 69.2543C765.273 68.9049 764.902 68.6279 764.442 68.4233C763.991 68.2103 763.449 68.1037 762.819 68.1037C761.975 68.1037 761.263 68.2827 760.684 68.6407C760.104 68.9901 759.814 69.4588 759.814 70.0469C759.814 70.5157 760.002 70.912 760.377 71.2358C760.752 71.5597 761.395 71.8196 762.307 72.0157L765.861 72.7316C767.77 73.1236 769.194 73.7543 770.131 74.6236C771.069 75.4929 771.537 76.635 771.537 78.0498C771.537 79.3367 771.158 80.4659 770.4 81.4375C769.65 82.4091 768.618 83.1676 767.306 83.7131C766.002 84.25 764.498 84.5185 762.793 84.5185C760.194 84.5185 758.123 83.9773 756.58 82.8949C755.046 81.804 754.147 80.3211 753.883 78.4461L759.239 78.1648C759.401 78.9574 759.793 79.5625 760.415 79.9801C761.037 80.3892 761.834 80.5938 762.806 80.5938C763.76 80.5938 764.527 80.4105 765.107 80.0441C765.695 79.6691 765.993 79.1875 766.002 78.5995C765.993 78.1051 765.785 77.7003 765.375 77.385C764.966 77.0611 764.336 76.814 763.483 76.6435L760.083 75.9659C758.165 75.5824 756.738 74.9176 755.8 73.9716C754.871 73.0256 754.407 71.8196 754.407 70.3537C754.407 69.0924 754.748 68.0057 755.429 67.0938C756.12 66.1819 757.087 65.4787 758.331 64.9844C759.584 64.4901 761.05 64.2429 762.729 64.2429C765.209 64.2429 767.161 64.7671 768.584 65.8154C770.016 66.8637 770.851 68.2912 771.09 70.098Z" fill="#006B82"/>
<path d="M441.558 127.536H439.251L442.766 117.354H445.54L449.05 127.536H446.743L444.192 119.681H444.113L441.558 127.536ZM441.413 123.534H446.862V125.214H441.413V123.534ZM452.413 127.68C451.926 127.68 451.492 127.596 451.11 127.427C450.729 127.254 450.428 127.001 450.206 126.666C449.987 126.328 449.877 125.907 449.877 125.403C449.877 124.979 449.955 124.623 450.111 124.334C450.267 124.046 450.479 123.814 450.748 123.638C451.016 123.463 451.321 123.33 451.662 123.241C452.007 123.151 452.368 123.088 452.746 123.052C453.19 123.005 453.548 122.962 453.82 122.922C454.092 122.879 454.289 122.816 454.412 122.733C454.534 122.651 454.596 122.528 454.596 122.366V122.336C454.596 122.021 454.496 121.777 454.297 121.605C454.102 121.433 453.823 121.346 453.462 121.346C453.081 121.346 452.778 121.431 452.552 121.6C452.327 121.766 452.178 121.974 452.105 122.226L450.146 122.067C450.245 121.603 450.441 121.202 450.733 120.864C451.024 120.523 451.4 120.261 451.861 120.079C452.325 119.893 452.862 119.8 453.472 119.8C453.896 119.8 454.302 119.85 454.69 119.949C455.081 120.049 455.427 120.203 455.729 120.412C456.034 120.62 456.274 120.889 456.45 121.217C456.626 121.542 456.713 121.931 456.713 122.385V127.536H454.705V126.477H454.645C454.523 126.716 454.359 126.926 454.153 127.108C453.948 127.287 453.701 127.428 453.412 127.531C453.124 127.63 452.791 127.68 452.413 127.68ZM453.02 126.218C453.331 126.218 453.606 126.157 453.845 126.035C454.083 125.909 454.271 125.74 454.407 125.527C454.542 125.315 454.61 125.075 454.61 124.807V123.996C454.544 124.039 454.453 124.079 454.337 124.116C454.224 124.149 454.097 124.18 453.954 124.21C453.812 124.236 453.669 124.261 453.527 124.285C453.384 124.304 453.255 124.323 453.139 124.339C452.89 124.376 452.673 124.434 452.488 124.513C452.302 124.593 452.158 124.701 452.055 124.836C451.952 124.969 451.901 125.135 451.901 125.334C451.901 125.622 452.005 125.842 452.214 125.995C452.426 126.144 452.695 126.218 453.02 126.218ZM458.357 127.536V119.9H460.41V121.232H460.489C460.629 120.758 460.862 120.4 461.19 120.158C461.518 119.913 461.896 119.79 462.324 119.79C462.43 119.79 462.544 119.797 462.667 119.81C462.79 119.823 462.897 119.842 462.99 119.865V121.744C462.891 121.714 462.753 121.688 462.577 121.665C462.402 121.641 462.241 121.63 462.095 121.63C461.784 121.63 461.505 121.698 461.26 121.834C461.018 121.966 460.826 122.152 460.683 122.39C460.544 122.629 460.474 122.904 460.474 123.216V127.536H458.357ZM465.625 130.4C465.357 130.4 465.105 130.378 464.869 130.335C464.637 130.295 464.445 130.244 464.293 130.181L464.77 128.6C465.018 128.676 465.242 128.718 465.441 128.724C465.643 128.731 465.817 128.684 465.963 128.585C466.112 128.486 466.233 128.317 466.326 128.078L466.45 127.755L463.711 119.9H465.938L467.519 125.508H467.599L469.195 119.9H471.437L468.469 128.361C468.326 128.772 468.132 129.13 467.887 129.435C467.645 129.743 467.339 129.98 466.967 130.146C466.596 130.315 466.149 130.4 465.625 130.4ZM474.493 127.68C474.006 127.68 473.572 127.596 473.191 127.427C472.809 127.254 472.508 127.001 472.286 126.666C472.067 126.328 471.958 125.907 471.958 125.403C471.958 124.979 472.035 124.623 472.191 124.334C472.347 124.046 472.559 123.814 472.828 123.638C473.096 123.463 473.401 123.33 473.742 123.241C474.087 123.151 474.448 123.088 474.826 123.052C475.27 123.005 475.628 122.962 475.9 122.922C476.172 122.879 476.369 122.816 476.492 122.733C476.614 122.651 476.676 122.528 476.676 122.366V122.336C476.676 122.021 476.576 121.777 476.377 121.605C476.182 121.433 475.903 121.346 475.542 121.346C475.161 121.346 474.858 121.431 474.632 121.6C474.407 121.766 474.258 121.974 474.185 122.226L472.226 122.067C472.325 121.603 472.521 121.202 472.813 120.864C473.104 120.523 473.481 120.261 473.941 120.079C474.405 119.893 474.942 119.8 475.552 119.8C475.976 119.8 476.382 119.85 476.77 119.949C477.161 120.049 477.508 120.203 477.809 120.412C478.114 120.62 478.354 120.889 478.53 121.217C478.706 121.542 478.793 121.931 478.793 122.385V127.536H476.785V126.477H476.725C476.603 126.716 476.439 126.926 476.233 127.108C476.028 127.287 475.781 127.428 475.492 127.531C475.204 127.63 474.871 127.68 474.493 127.68ZM475.1 126.218C475.411 126.218 475.686 126.157 475.925 126.035C476.164 125.909 476.351 125.74 476.487 125.527C476.623 125.315 476.691 125.075 476.691 124.807V123.996C476.624 124.039 476.533 124.079 476.417 124.116C476.304 124.149 476.177 124.18 476.034 124.21C475.892 124.236 475.749 124.261 475.607 124.285C475.464 124.304 475.335 124.323 475.219 124.339C474.97 124.376 474.753 124.434 474.568 124.513C474.382 124.593 474.238 124.701 474.135 124.836C474.032 124.969 473.981 125.135 473.981 125.334C473.981 125.622 474.085 125.842 474.294 125.995C474.506 126.144 474.775 126.218 475.1 126.218ZM483.251 127.66C482.671 127.66 482.145 127.511 481.675 127.213C481.207 126.911 480.836 126.469 480.561 125.885C480.289 125.299 480.153 124.58 480.153 123.728C480.153 122.853 480.294 122.125 480.576 121.545C480.858 120.962 481.232 120.526 481.699 120.238C482.17 119.946 482.685 119.8 483.246 119.8C483.673 119.8 484.029 119.873 484.314 120.019C484.603 120.161 484.835 120.34 485.01 120.556C485.189 120.768 485.325 120.977 485.418 121.182H485.483V117.354H487.596V127.536H485.508V126.313H485.418C485.319 126.525 485.178 126.736 484.996 126.944C484.817 127.15 484.583 127.321 484.295 127.456C484.01 127.592 483.662 127.66 483.251 127.66ZM483.922 125.975C484.263 125.975 484.551 125.882 484.787 125.696C485.025 125.508 485.208 125.244 485.334 124.906C485.463 124.568 485.528 124.172 485.528 123.718C485.528 123.264 485.465 122.869 485.339 122.535C485.213 122.2 485.03 121.941 484.792 121.759C484.553 121.577 484.263 121.486 483.922 121.486C483.574 121.486 483.28 121.58 483.042 121.769C482.803 121.958 482.622 122.22 482.5 122.554C482.377 122.889 482.316 123.277 482.316 123.718C482.316 124.162 482.377 124.555 482.5 124.896C482.626 125.234 482.806 125.499 483.042 125.692C483.28 125.88 483.574 125.975 483.922 125.975ZM492.817 127.685C492.032 127.685 491.355 127.526 490.789 127.208C490.225 126.886 489.791 126.432 489.486 125.846C489.181 125.256 489.029 124.558 489.029 123.753C489.029 122.967 489.181 122.278 489.486 121.684C489.791 121.091 490.22 120.629 490.774 120.297C491.331 119.966 491.984 119.8 492.733 119.8C493.236 119.8 493.705 119.881 494.14 120.044C494.577 120.203 494.958 120.443 495.283 120.765C495.611 121.086 495.866 121.491 496.049 121.978C496.231 122.462 496.322 123.028 496.322 123.678V124.26H489.874V122.947H494.328C494.328 122.642 494.262 122.372 494.13 122.137C493.997 121.901 493.813 121.718 493.578 121.585C493.346 121.449 493.076 121.381 492.767 121.381C492.446 121.381 492.161 121.456 491.912 121.605C491.667 121.751 491.475 121.948 491.336 122.196C491.196 122.442 491.125 122.715 491.122 123.017V124.265C491.122 124.642 491.191 124.969 491.331 125.244C491.473 125.519 491.674 125.731 491.932 125.88C492.191 126.03 492.497 126.104 492.852 126.104C493.087 126.104 493.303 126.071 493.498 126.005C493.694 125.938 493.861 125.839 494 125.706C494.14 125.574 494.246 125.411 494.319 125.219L496.277 125.348C496.178 125.819 495.974 126.23 495.666 126.581C495.361 126.929 494.966 127.201 494.483 127.397C494.002 127.589 493.447 127.685 492.817 127.685ZM504.618 119.9L501.949 127.536H499.562L496.893 119.9H499.13L500.716 125.363H500.795L502.376 119.9H504.618ZM444.64 137.645C444.57 137.403 444.473 137.19 444.347 137.004C444.221 136.815 444.067 136.656 443.884 136.527C443.705 136.394 443.5 136.293 443.268 136.223C443.039 136.154 442.786 136.119 442.507 136.119C441.987 136.119 441.529 136.248 441.135 136.507C440.744 136.765 440.439 137.142 440.22 137.635C440.001 138.126 439.892 138.726 439.892 139.435C439.892 140.144 440 140.748 440.215 141.245C440.431 141.742 440.736 142.121 441.13 142.383C441.524 142.642 441.99 142.771 442.527 142.771C443.014 142.771 443.43 142.685 443.775 142.513C444.123 142.337 444.388 142.09 444.57 141.772C444.756 141.454 444.849 141.077 444.849 140.643L445.286 140.708H442.661V139.087H446.922V140.37C446.922 141.265 446.733 142.034 446.355 142.677C445.977 143.316 445.457 143.81 444.794 144.158C444.131 144.503 443.372 144.675 442.517 144.675C441.562 144.675 440.724 144.465 440.001 144.044C439.279 143.62 438.715 143.018 438.311 142.239C437.91 141.457 437.71 140.529 437.71 139.455C437.71 138.63 437.829 137.894 438.067 137.248C438.309 136.598 438.647 136.048 439.082 135.597C439.516 135.146 440.021 134.803 440.598 134.568C441.175 134.333 441.799 134.215 442.472 134.215C443.049 134.215 443.586 134.299 444.083 134.468C444.58 134.634 445.021 134.87 445.406 135.174C445.793 135.479 446.11 135.842 446.355 136.263C446.6 136.681 446.758 137.142 446.827 137.645H444.64ZM450.617 140.121V144.536H448.499V134.354H450.557V138.247H450.647C450.819 137.796 451.098 137.443 451.482 137.188C451.867 136.929 452.349 136.8 452.929 136.8C453.459 136.8 453.921 136.916 454.316 137.148C454.714 137.377 455.022 137.707 455.241 138.138C455.463 138.565 455.572 139.077 455.569 139.674V144.536H453.451V140.052C453.454 139.581 453.335 139.215 453.093 138.953C452.854 138.691 452.519 138.56 452.089 138.56C451.8 138.56 451.545 138.621 451.323 138.744C451.104 138.867 450.932 139.046 450.806 139.281C450.683 139.513 450.62 139.793 450.617 140.121ZM460.686 144.685C459.913 144.685 459.246 144.521 458.682 144.193C458.122 143.861 457.69 143.401 457.385 142.811C457.08 142.218 456.927 141.53 456.927 140.748C456.927 139.959 457.08 139.269 457.385 138.679C457.69 138.086 458.122 137.625 458.682 137.297C459.246 136.966 459.913 136.8 460.686 136.8C461.458 136.8 462.124 136.966 462.684 137.297C463.248 137.625 463.682 138.086 463.987 138.679C464.292 139.269 464.444 139.959 464.444 140.748C464.444 141.53 464.292 142.218 463.987 142.811C463.682 143.401 463.248 143.861 462.684 144.193C462.124 144.521 461.458 144.685 460.686 144.685ZM460.696 143.044C461.047 143.044 461.34 142.945 461.576 142.746C461.811 142.544 461.988 142.269 462.108 141.921C462.23 141.573 462.292 141.177 462.292 140.733C462.292 140.289 462.23 139.892 462.108 139.544C461.988 139.196 461.811 138.921 461.576 138.719C461.34 138.517 461.047 138.416 460.696 138.416C460.341 138.416 460.043 138.517 459.801 138.719C459.562 138.921 459.382 139.196 459.259 139.544C459.14 139.892 459.08 140.289 459.08 140.733C459.08 141.177 459.14 141.573 459.259 141.921C459.382 142.269 459.562 142.544 459.801 142.746C460.043 142.945 460.341 143.044 460.696 143.044ZM472.175 139.077L470.236 139.196C470.203 139.031 470.132 138.882 470.022 138.749C469.913 138.613 469.769 138.505 469.59 138.426C469.414 138.343 469.204 138.302 468.958 138.302C468.63 138.302 468.354 138.371 468.128 138.51C467.903 138.646 467.79 138.829 467.79 139.057C467.79 139.24 467.863 139.394 468.009 139.52C468.155 139.646 468.405 139.747 468.76 139.823L470.142 140.101C470.884 140.254 471.438 140.499 471.802 140.837C472.167 141.175 472.349 141.619 472.349 142.169C472.349 142.67 472.202 143.109 471.907 143.487C471.615 143.865 471.214 144.16 470.703 144.372C470.196 144.581 469.611 144.685 468.949 144.685C467.938 144.685 467.132 144.475 466.532 144.054C465.936 143.629 465.586 143.053 465.483 142.324L467.566 142.214C467.629 142.522 467.782 142.758 468.024 142.92C468.266 143.079 468.576 143.159 468.953 143.159C469.325 143.159 469.623 143.088 469.848 142.945C470.077 142.799 470.193 142.612 470.196 142.383C470.193 142.191 470.112 142.034 469.953 141.911C469.794 141.785 469.548 141.689 469.217 141.623L467.895 141.359C467.149 141.21 466.594 140.951 466.229 140.584C465.868 140.216 465.687 139.747 465.687 139.177C465.687 138.686 465.82 138.263 466.085 137.909C466.353 137.554 466.73 137.281 467.213 137.089C467.701 136.896 468.271 136.8 468.924 136.8C469.888 136.8 470.647 137.004 471.201 137.412C471.757 137.819 472.082 138.375 472.175 139.077ZM475.86 144.68C475.373 144.68 474.939 144.596 474.558 144.427C474.177 144.254 473.875 144.001 473.653 143.666C473.434 143.328 473.325 142.907 473.325 142.403C473.325 141.979 473.403 141.623 473.558 141.334C473.714 141.046 473.926 140.814 474.195 140.638C474.463 140.463 474.768 140.33 475.11 140.241C475.454 140.151 475.816 140.088 476.193 140.052C476.637 140.005 476.995 139.962 477.267 139.922C477.539 139.879 477.736 139.816 477.859 139.733C477.981 139.651 478.043 139.528 478.043 139.366V139.336C478.043 139.021 477.943 138.777 477.744 138.605C477.549 138.433 477.271 138.346 476.909 138.346C476.528 138.346 476.225 138.431 475.999 138.6C475.774 138.766 475.625 138.974 475.552 139.226L473.593 139.067C473.693 138.603 473.888 138.202 474.18 137.864C474.472 137.523 474.848 137.261 475.308 137.079C475.772 136.893 476.309 136.8 476.919 136.8C477.343 136.8 477.749 136.85 478.137 136.949C478.528 137.049 478.875 137.203 479.176 137.412C479.481 137.62 479.722 137.889 479.897 138.217C480.073 138.542 480.161 138.931 480.161 139.385V144.536H478.152V143.477H478.093C477.97 143.716 477.806 143.926 477.6 144.108C477.395 144.287 477.148 144.428 476.86 144.531C476.571 144.63 476.238 144.68 475.86 144.68ZM476.467 143.218C476.778 143.218 477.053 143.157 477.292 143.035C477.531 142.909 477.718 142.74 477.854 142.527C477.99 142.315 478.058 142.075 478.058 141.807V140.996C477.991 141.039 477.9 141.079 477.784 141.116C477.672 141.149 477.544 141.18 477.401 141.21C477.259 141.236 477.116 141.261 476.974 141.285C476.831 141.304 476.702 141.323 476.586 141.339C476.338 141.376 476.12 141.434 475.935 141.513C475.749 141.593 475.605 141.701 475.502 141.836C475.4 141.969 475.348 142.135 475.348 142.334C475.348 142.622 475.453 142.842 475.661 142.995C475.874 143.144 476.142 143.218 476.467 143.218ZM483.922 134.354V144.536H481.804V134.354H483.922ZM487.537 142.339L487.542 139.798H487.85L490.297 136.9H492.728L489.441 140.738H488.939L487.537 142.339ZM485.618 144.536V134.354H487.736V144.536H485.618ZM490.391 144.536L488.144 141.21L489.556 139.714L492.872 144.536H490.391ZM495.944 144.68C495.457 144.68 495.023 144.596 494.642 144.427C494.261 144.254 493.959 144.001 493.737 143.666C493.518 143.328 493.409 142.907 493.409 142.403C493.409 141.979 493.487 141.623 493.642 141.334C493.798 141.046 494.01 140.814 494.279 140.638C494.547 140.463 494.852 140.33 495.194 140.241C495.538 140.151 495.899 140.088 496.277 140.052C496.721 140.005 497.079 139.962 497.351 139.922C497.623 139.879 497.82 139.816 497.943 139.733C498.065 139.651 498.127 139.528 498.127 139.366V139.336C498.127 139.021 498.027 138.777 497.828 138.605C497.633 138.433 497.355 138.346 496.993 138.346C496.612 138.346 496.309 138.431 496.083 138.6C495.858 138.766 495.709 138.974 495.636 139.226L493.677 139.067C493.777 138.603 493.972 138.202 494.264 137.864C494.556 137.523 494.932 137.261 495.392 137.079C495.856 136.893 496.393 136.8 497.003 136.8C497.427 136.8 497.833 136.85 498.221 136.949C498.612 137.049 498.959 137.203 499.26 137.412C499.565 137.62 499.806 137.889 499.981 138.217C500.157 138.542 500.245 138.931 500.245 139.385V144.536H498.236V143.477H498.176C498.054 143.716 497.89 143.926 497.684 144.108C497.479 144.287 497.232 144.428 496.944 144.531C496.655 144.63 496.322 144.68 495.944 144.68ZM496.551 143.218C496.862 143.218 497.137 143.157 497.376 143.035C497.615 142.909 497.802 142.74 497.938 142.527C498.074 142.315 498.142 142.075 498.142 141.807V140.996C498.075 141.039 497.984 141.079 497.868 141.116C497.756 141.149 497.628 141.18 497.485 141.21C497.343 141.236 497.2 141.261 497.058 141.285C496.915 141.304 496.786 141.323 496.67 141.339C496.422 141.376 496.204 141.434 496.019 141.513C495.833 141.593 495.689 141.701 495.586 141.836C495.484 141.969 495.432 142.135 495.432 142.334C495.432 142.622 495.537 142.842 495.745 142.995C495.958 143.144 496.226 143.218 496.551 143.218ZM501.888 144.536V136.9H503.941V138.232H504.021C504.16 137.758 504.393 137.4 504.722 137.158C505.05 136.913 505.428 136.79 505.855 136.79C505.961 136.79 506.076 136.797 506.198 136.81C506.321 136.823 506.429 136.842 506.521 136.865V138.744C506.422 138.714 506.284 138.688 506.109 138.665C505.933 138.641 505.772 138.63 505.626 138.63C505.315 138.63 505.036 138.698 504.791 138.834C504.549 138.966 504.357 139.152 504.214 139.39C504.075 139.629 504.006 139.904 504.006 140.216V144.536H501.888Z" fill="black"/>
<defs>
<radialGradient id="paint0_radial_3_41" cx="0" cy="0" r="1" gradientUnits="userSpaceOnUse" gradientTransform="translate(69.2708 80.8334) rotate(52.085) scale(1334.1 1766.63)">
<stop offset="0.0543156" stop-color="#00D1FF"/>
<stop offset="0.365931" stop-color="#0097B8"/>
<stop offset="0.94406" stop-color="#006B82"/>
</radialGradient>
</defs>
</svg>
